<svg xmlns="http://www.w3.org/2000/svg" viewBox="0 0 30 30"><g transform="matrix(0.6,0,0,0.6,0,0)"><defs><style>.a{fill:#9ceb60}.b{fill:#c8ffa1}.c,.d{fill:none;stroke:#45413c;stroke-linecap:round;stroke-linejoin:round;stroke-width:1.25px}.d{stroke:#46b000}</style></defs><path class="a" d="M40.45 27.235a8.412 8.412 0 0 1-2.4 2.4l-.044.029a7.787 7.787 0 0 1-1.472.757 7.6 7.6 0 0 1-4.387.45c-2.714-.685-3.352-4.227-1.406-6.623 3.13-3.854 8.726-3.009 10.678-2.569a.831.831 0 0 1 .66.866 10.075 10.075 0 0 1-1.629 4.69z"></path><path class="b" d="M30.744 26.027c3.13-3.854 8.726-3.009 10.678-2.569a.87.87 0 0 1 .48.3 9.8 9.8 0 0 0 .18-1.211.831.831 0 0 0-.66-.866c-1.952-.441-7.548-1.281-10.678 2.569a4.832 4.832 0 0 0-1.034 3.991 5.02 5.02 0 0 1 1.034-2.214z"></path><path class="c" d="M40.45 27.235a8.412 8.412 0 0 1-2.4 2.4l-.044.029a7.787 7.787 0 0 1-1.472.757 7.6 7.6 0 0 1-4.387.45c-2.714-.685-3.352-4.227-1.406-6.623 3.13-3.854 8.726-3.009 10.678-2.569a.831.831 0 0 1 .66.866 10.075 10.075 0 0 1-1.629 4.69z"></path><path class="d" d="M29.9 28.871a18.509 18.509 0 0 1 7.341-4.457"></path><path class="a" d="M19.026 4.89c-.211.343-.4.688-.57 1.03a9.37 9.37 0 0 0-.464 6.366 7.393 7.393 0 0 0 1.449 2.942c2.082 2.441 6.044 1.3 7.518-1.92C29.3 8.2 25.708 2.942 24.229 1.1a1.051 1.051 0 0 0-1.4-.218 13.2 13.2 0 0 0-3.803 4.008z"></path><path class="b" d="M22.277 15.629a7.418 7.418 0 0 1-1.448-2.942 9.37 9.37 0 0 1 .465-6.366c.167-.342.358-.688.569-1.03a13.643 13.643 0 0 1 2.977-3.384 18.283 18.283 0 0 0-.611-.808 1.049 1.049 0 0 0-1.4-.217 13.2 13.2 0 0 0-3.8 4.008c-.211.343-.4.688-.569 1.031a9.361 9.361 0 0 0-.465 6.365 7.406 7.406 0 0 0 1.449 2.942 3.761 3.761 0 0 0 3.792 1.2 3.768 3.768 0 0 1-.959-.799z"></path><path d="M23.319 42.732c-.585-3.222 1.429-6.1 3.279-11.058 1.5-4.031 2.045-11.428-6.113-14.515 6.591-1.625 13.575 6.1 9.849 16.084-1.039 2.787-1.929 4.316-1.7 9.416z" style="fill:#6dd627;stroke-linecap:round;stroke-linejoin:round;stroke-width:1.25px;stroke:#45413c"></path><path class="d" d="M23.411 16.394a26.1 26.1 0 0 1-1.439-5.2A8.155 8.155 0 0 1 22.7 6.34"></path><path d="M40.781 45.315a4.3 4.3 0 0 0-2.392-3.378c-3.028-1.358-4.757.329-5.005.71a5.123 5.123 0 0 0-8.556-1.271 3.97 3.97 0 0 0-7.695 1.842 2.672 2.672 0 0 0-4.087 2.1c-.078 5.389 27.572 5.212 27.735-.003z" style="fill:#bf8256"></path><path d="M13.9 43.524a2.7 2.7 0 0 0-.858 1.791c-.078 5.392 27.572 5.215 27.735 0a4.409 4.409 0 0 0-.442-1.464c-4.276 3.443-23.345 3.432-26.435-.327z" style="fill:#915e3a"></path><path class="c" d="M40.781 45.315a4.3 4.3 0 0 0-2.392-3.378c-3.028-1.358-4.757.329-5.005.71a5.123 5.123 0 0 0-8.556-1.271 3.97 3.97 0 0 0-7.695 1.842 2.672 2.672 0 0 0-4.087 2.1c-.078 5.389 27.572 5.212 27.735-.003zM19.026 4.89c-.211.343-.4.688-.57 1.03a9.37 9.37 0 0 0-.464 6.366 7.393 7.393 0 0 0 1.449 2.942c2.082 2.441 6.044 1.3 7.518-1.92C29.3 8.2 25.708 2.942 24.229 1.1a1.051 1.051 0 0 0-1.4-.218 13.2 13.2 0 0 0-3.803 4.008z"></path><path class="a" d="M11.361 17.781c.3-.257.613-.495.923-.709a9.259 9.259 0 0 1 6.148-1.395 7.319 7.319 0 0 1 3.087.981c2.692 1.673 2.16 5.712-.764 7.626-4.645 3.043-10.309.31-12.328-.862a1.041 1.041 0 0 1-.412-1.346 13.04 13.04 0 0 1 3.346-4.295z"></path><path class="b" d="M10.07 23.988a13.03 13.03 0 0 1 3.347-4.295c.3-.257.612-.5.922-.709a9.254 9.254 0 0 1 6.148-1.394 7.909 7.909 0 0 1 2.425.631 3.614 3.614 0 0 0-1.393-1.563 7.333 7.333 0 0 0-3.087-.981 9.258 9.258 0 0 0-6.148 1.395c-.31.214-.619.452-.923.709a13.04 13.04 0 0 0-3.346 4.3 1.041 1.041 0 0 0 .412 1.346c.4.23.937.521 1.579.815a1.1 1.1 0 0 1 .064-.254z"></path><path class="d" d="M23.136 18.829a18.624 18.624 0 0 0-9.345 2.359"></path><path class="c" d="M11.361 17.781c.3-.257.613-.495.923-.709a9.259 9.259 0 0 1 6.148-1.395 7.319 7.319 0 0 1 3.087.981c2.692 1.673 2.16 5.712-.764 7.626-4.645 3.043-10.309.31-12.328-.862a1.041 1.041 0 0 1-.412-1.346 13.04 13.04 0 0 1 3.346-4.295z"></path><path d="M20.785 44.314a1.24 1.24 0 0 1 1.905-.892m6.344-.935a1.239 1.239 0 0 1 2 .634" style="stroke:#915e3a;stroke-linecap:round;stroke-linejoin:round;stroke-width:1.25px;fill:none"></path></g></svg>