<svg xmlns="http://www.w3.org/2000/svg" viewBox="0 0 30 30"><g transform="matrix(0.6,0,0,0.6,0,0)"><defs><style>.a{fill:#ff6242}.c{fill:none;stroke:#45413c;stroke-linecap:round;stroke-linejoin:round;stroke-width:1.25px}.d{fill:#ffe500}</style></defs><rect class="a" x="12" y="4" width="26" height="42" rx="2.368" ry="2.368" transform="rotate(45 25 25)"></rect><path class="a" d="M47.367 17.669 32.331 2.633a2.368 2.368 0 0 0-3.349 0l-4.394 4.394a17.376 17.376 0 0 0 3 8.478.873.873 0 0 0 1.1.314c1.138-.555 2.88.028 4.174 1.321s1.874 3.038 1.321 4.174a.872.872 0 0 0 .313 1.1 17.375 17.375 0 0 0 8.479 3l4.394-4.394a2.368 2.368 0 0 0-.002-3.351z"></path><path d="M45.953 19.083 30.917 4.047a2.368 2.368 0 0 0-3.349 0l-4.394 4.4a17.383 17.383 0 0 0 3 8.478.873.873 0 0 0 1.1.313c1.139-.555 2.881.028 4.175 1.321s1.874 3.038 1.321 4.174a.874.874 0 0 0 .313 1.1 17.383 17.383 0 0 0 8.478 3l4.4-4.394a2.368 2.368 0 0 0-.008-3.356z" style="fill:#e04122"></path><path class="c" d="M47.367 17.669 32.331 2.633a2.368 2.368 0 0 0-3.349 0l-4.394 4.394a17.376 17.376 0 0 0 3 8.478.873.873 0 0 0 1.1.314c1.138-.555 2.88.028 4.174 1.321s1.874 3.038 1.321 4.174a.872.872 0 0 0 .313 1.1 17.375 17.375 0 0 0 8.479 3l4.394-4.394a2.368 2.368 0 0 0-.002-3.351z"></path><path class="d" d="M23.839 31.618c.294-.924-.351-2.473-1.667-3.79s-2.866-1.961-3.79-1.667c-1.748-1.742-3.072-2.785-3.934-1.923-1.262 1.262-1.057 6.123 2.067 9.247s7.985 3.329 9.247 2.067c.862-.862-.181-2.186-1.923-3.934z"></path><ellipse cx="20.757" cy="29.243" rx="2" ry="4" transform="rotate(-45 20.758 29.243)" style="fill:#fff48c;stroke-linecap:round;stroke-linejoin:round;stroke-width:1.25px;stroke:#45413c"></ellipse><path class="c" d="M23.839 31.618c.294-.924-.351-2.473-1.667-3.79s-2.866-1.961-3.79-1.667c-1.748-1.742-3.072-2.785-3.934-1.923-1.262 1.262-1.057 6.123 2.067 9.247s7.985 3.329 9.247 2.067c.862-.862-.181-2.186-1.923-3.934z"></path><path d="m26.414 23.586-2.121 2.121m-2.287-4.67-.376 2.976m7.276 3.923-2.977.377" style="stroke:#f2c100;stroke-linecap:round;stroke-linejoin:round;stroke-width:1.25px;fill:none"></path><circle class="d" cx="31.364" cy="18.636" r="5"></circle><path d="M29.243 20.757a5 5 0 0 1-.636-6.292 5 5 0 1 0 6.928 6.928 5 5 0 0 1-6.292-.636z" style="fill:#f2c100"></path><circle class="c" cx="31.364" cy="18.636" r="5"></circle><rect class="c" x="12" y="4" width="26" height="42" rx="2.368" ry="2.368" transform="rotate(45 25 25)"></rect></g></svg>