<svg xmlns="http://www.w3.org/2000/svg" viewBox="0 0 30 30"><g transform="matrix(0.6,0,0,0.6,0,0)"><defs><style>.a{fill:#bf8256}.a,.d{stroke:#45413c;stroke-linecap:round;stroke-linejoin:round;stroke-width:1.25px}.b{fill:#6dd627}.c{fill:#9ceb60}.d{fill:none}</style></defs><path class="a" d="M14.614 48.515h-.367a1.82 1.82 0 0 1-1.82-1.82v-9.149h4.007v9.15a1.82 1.82 0 0 1-1.82 1.819z"></path><path class="b" d="M4.426 30.493c0 9.062 4.411 10.09 9.853 10.09s9.853-1.028 9.853-10.09-4.412-19.362-9.853-19.362S4.426 21.43 4.426 30.493z"></path><path class="c" d="M14.279 17.293c4.8 0 8.785 8 9.667 16.1a21 21 0 0 0 .186-2.9c0-9.062-4.412-19.362-9.853-19.362s-9.853 10.3-9.853 19.362a21 21 0 0 0 .186 2.9c.882-8.104 4.872-16.1 9.667-16.1z"></path><path class="d" d="M4.426 30.493c0 9.062 4.411 10.09 9.853 10.09s9.853-1.028 9.853-10.09-4.412-19.362-9.853-19.362S4.426 21.43 4.426 30.493z"></path><path class="a" d="M33.566 37.36h4.007v9.149a1.82 1.82 0 0 1-1.82 1.82h-.367a1.82 1.82 0 0 1-1.82-1.82V37.36h0z"></path><path class="b" d="M45.574 30.306c0 9.062-4.411 10.09-9.853 10.09s-9.853-1.028-9.853-10.09 4.412-19.362 9.853-19.362 9.853 10.3 9.853 19.362z"></path><path class="c" d="M35.721 17.106c-4.795 0-8.785 8-9.667 16.1a20.987 20.987 0 0 1-.186-2.9c0-9.062 4.412-19.362 9.853-19.362s9.853 10.3 9.853 19.362a20.987 20.987 0 0 1-.186 2.9c-.882-8.106-4.872-16.1-9.667-16.1z"></path><path class="d" d="M45.574 30.306c0 9.062-4.411 10.09-9.853 10.09s-9.853-1.028-9.853-10.09 4.412-19.362 9.853-19.362 9.853 10.3 9.853 19.362z"></path><path class="c" d="M36.24 29.034c0 10.47-5.1 11.549-11.383 11.549S13.473 39.5 13.473 29.034 18.57 1.357 24.857 1.357 36.24 18.565 36.24 29.034z"></path><path d="M24.625 7.434c5.862 0 10.687 14.959 11.313 25.468a23.006 23.006 0 0 0 .3-3.868c0-10.469-5.1-27.677-11.383-27.677S13.473 18.565 13.473 29.034c0 .52.022 1 .047 1.473C14.659 20.263 19.2 7.434 24.625 7.434z" style="fill:#c8ffa1"></path><path class="d" d="M36.24 29.034c0 10.47-5.1 11.549-11.383 11.549S13.473 39.5 13.473 29.034 18.57 1.357 24.857 1.357 36.24 18.565 36.24 29.034z"></path><path d="m19.258 29.058 3.413 4.848v12.825a1.912 1.912 0 0 0 1.911 1.912h0a1.912 1.912 0 0 0 1.912-1.912V33.844l4.256-3.265a1.634 1.634 0 0 0-.109-2.671h0a1.633 1.633 0 0 0-1.761-.008l-2.594 1.644.167-6.577a1.571 1.571 0 0 0-1.571-1.611h0a1.571 1.571 0 0 0-1.571 1.571v6.617l-1.79-2.2a1.42 1.42 0 0 0-2.034-.175h0a1.419 1.419 0 0 0-.229 1.889z" style="fill:#dea47a;stroke:#45413c;stroke-linecap:round;stroke-linejoin:round;stroke-width:1.25px"></path></g></svg>