<svg xmlns="http://www.w3.org/2000/svg" viewBox="0 0 30 30"><g transform="matrix(0.6,0,0,0.6,0,0)"><defs><style>.b,.e{fill:none;stroke-linecap:round;stroke-linejoin:round;stroke-width:1.25px}.b{stroke:#45413c}.c{fill:#6dd627}.d{fill:#9ceb60}.e{stroke:#46b000}</style></defs><path d="M28.665 43.4a3.355 3.355 0 0 0 3.349 3.364 3.345 3.345 0 0 0 3.286-4.018c-1.342-6.418-2.411-11.534-11.859-17.509 0 0 5.252 8.797 5.224 18.163z" style="fill:#46b000"></path><path class="b" d="M28.665 43.4a3.355 3.355 0 0 0 3.349 3.364h0a3.345 3.345 0 0 0 3.286-4.018c-1.342-6.418-2.411-11.534-11.859-17.509 0 0 5.252 8.797 5.224 18.163z"></path><path class="c" d="M7.352 19.231C3.96 15.588 5.094 9.953 9.508 6.164c4.025-3.455 9.425-4.137 12.817-.494 2.415 2.594 2.6 12.066 2.512 17.306a2.724 2.724 0 0 1-3.513 2.573c-4.361-1.326-11.649-3.823-13.972-6.318z"></path><path class="d" d="M12.062 9.436c3.5-3 8.026-3.9 11.379-1.7a5.928 5.928 0 0 0-1.116-2.066c-3.392-3.643-8.792-2.961-12.817.494-4.414 3.788-5.548 9.424-2.156 13.067a7.368 7.368 0 0 0 1.075.923c-1.335-3.437.087-7.673 3.635-10.718z"></path><path class="e" d="M16.94 16.623a14.7 14.7 0 0 0 6.983 8.354"></path><path class="b" d="M7.352 19.231C3.96 15.588 5.094 9.953 9.508 6.164c4.025-3.455 9.425-4.137 12.817-.494 2.415 2.594 2.6 12.066 2.512 17.306a2.724 2.724 0 0 1-3.513 2.573c-4.361-1.326-11.649-3.823-13.972-6.318z"></path><path class="c" d="M29.112 11.331c3.257-3.764 8.981-3.244 13.224.736 3.868 3.629 5.128 8.924 1.872 12.688-2.042 2.36-9.57 3.58-14.9 4.161a4.2 4.2 0 0 1-4.57-5.021c.926-4.452 2.452-10.342 4.374-12.564z"></path><path class="d" d="M39.266 15.177c3.288 3.084 4.68 7.37 3.028 10.9a5.919 5.919 0 0 0 1.914-1.321c3.256-3.764 2-9.059-1.872-12.688-4.243-3.981-9.968-4.5-13.224-.736a7.9 7.9 0 0 0-.928 1.405c3.277-1.725 7.661-.77 11.082 2.44z"></path><path class="e" d="M33.519 20.154a14.71 14.71 0 0 0-7.768 7.425"></path><path class="b" d="M29.112 11.331c3.257-3.764 8.981-3.244 13.224.736 3.868 3.629 5.128 8.924 1.872 12.688-2.042 2.36-9.57 3.58-14.9 4.161a4.2 4.2 0 0 1-4.57-5.021c.926-4.452 2.452-10.342 4.374-12.564z"></path><path class="c" d="M8.687 25.658C4.068 27.514 2.7 33.1 5.082 38.4c2.174 4.838 6.772 7.751 11.39 5.9 2.9-1.163 6.5-7.885 8.781-12.739a4.2 4.2 0 0 0-3.262-5.954c-4.512-.572-10.578-1.044-13.304.051z"></path><path class="d" d="M9.022 36.511c1.847 4.113 5.447 6.822 9.321 6.407a5.911 5.911 0 0 1-1.871 1.382c-4.618 1.856-9.216-1.058-11.39-5.9C2.7 33.1 4.068 27.514 8.687 25.658a7.949 7.949 0 0 1 1.63-.421C7.621 27.776 7.1 32.232 9.022 36.511z"></path><path class="e" d="M15.324 32.438a14.7 14.7 0 0 1 9.865-4.591"></path><path class="b" d="M8.687 25.658C4.068 27.514 2.7 33.1 5.082 38.4c2.174 4.838 6.772 7.751 11.39 5.9 2.9-1.163 6.5-7.885 8.781-12.739a4.2 4.2 0 0 0-3.262-5.954c-4.512-.572-10.578-1.044-13.304.051z"></path></g></svg>