<svg xmlns="http://www.w3.org/2000/svg" viewBox="0 0 30 30"><g transform="matrix(0.6,0,0,0.6,0,0)"><defs><style>.b{fill:#e04122}.c{fill:#ffe500}.d{fill:#fff48c}.e{fill:none;stroke:#45413c;stroke-linecap:round;stroke-linejoin:round;stroke-width:1.25px}</style></defs><path d="M20.753 10.842c-1.563-1.563-6.049.389-10.019 4.36s-5.923 8.456-4.36 10.019l22.9 22.9c1.514 1.515 5.962-.476 9.932-4.447s5.962-8.418 4.448-9.932z" style="fill:#ff6242"></path><path class="b" d="m20.753 10.842 20.533 20.532c1.515 1.515-.476 5.962-4.447 9.933s-8.4 5.955-9.926 4.454l2.365 2.364c1.514 1.515 5.962-.476 9.932-4.447s5.962-8.418 4.448-9.932z"></path><path class="c" d="m20.705 39.553 5.086 5.086a28.02 28.02 0 0 0 8.573-5.807 28.032 28.032 0 0 0 5.807-8.573l-5.087-5.087c-.238 1.552-1.686 4.935-5.566 8.814s-7.26 5.328-8.813 5.567z"></path><path class="d" d="M29.519 33.986c-3.879 3.879-7.261 5.328-8.814 5.566l1.915 1.916c1.553-.239 4.936-1.688 8.814-5.566S36.761 28.64 37 27.087l-1.915-1.915c-.239 1.553-1.685 4.935-5.566 8.814z"></path><path class="e" d="m20.705 39.553 5.086 5.086a28.02 28.02 0 0 0 8.573-5.807 28.032 28.032 0 0 0 5.807-8.573l-5.087-5.087c-.238 1.552-1.686 4.935-5.566 8.814s-7.26 5.328-8.813 5.567z"></path><path class="c" d="m12.5 31.344 2.8 2.8a27.984 27.984 0 0 0 8.573-5.807 27.984 27.984 0 0 0 5.807-8.573l-2.8-2.8c-.239 1.552-1.687 4.934-5.566 8.814s-7.265 5.327-8.814 5.566z"></path><path class="d" d="M21.31 25.778c-3.878 3.878-7.261 5.327-8.814 5.566l1.375 1.374c1.553-.238 4.935-1.688 8.813-5.566s5.328-7.262 5.566-8.814l-1.375-1.374c-.238 1.552-1.685 4.936-5.565 8.814z"></path><path class="e" d="m12.5 31.344 2.8 2.8a27.984 27.984 0 0 0 8.573-5.807 27.984 27.984 0 0 0 5.807-8.573l-2.8-2.8c-.239 1.552-1.687 4.934-5.566 8.814s-7.265 5.327-8.814 5.566z"></path><ellipse class="b" cx="13.563" cy="18.031" rx="6.859" ry="2.7" transform="rotate(-45 13.564 18.03)"></ellipse><path class="e" d="M20.753 10.842c-1.563-1.563-6.049.389-10.019 4.36s-5.923 8.456-4.36 10.019l22.9 22.9c1.514 1.515 5.962-.476 9.932-4.447s5.962-8.418 4.448-9.932z"></path><path d="M31.687 8.454a.865.865 0 0 1-.139 1.278 4.928 4.928 0 0 1-5.454.238c-2.5-1.248-4.225-3.665-6.789-4.791-2.519-1.106-4.819.7-6.441 2.5a5.3 5.3 0 0 0-1.758 4.111c.2 2.027 1.95 3.685 3.394 4.958a.862.862 0 0 1 .167 1.068 3.515 3.515 0 0 1-1.355 1.331.876.876 0 0 1-.99-.078c-2-1.673-3.923-3.823-4.486-6.445a8.284 8.284 0 0 1 2.027-6.876 11.761 11.761 0 0 1 6.253-4.2 7.43 7.43 0 0 1 5.863 1.11c.214.153.772.582 1.47 1.12 1.2.925 3.7 2.85 4.2 3.127.728.363 1.14.481 1.746.1a.867.867 0 0 1 1.11.141z" style="fill:#f0d5a8"></path><path d="M27.554 9.352c-3-1.5-5.079-4.406-8.161-5.76-3.027-1.329-5.794.843-7.743 3-1.278 1.415-2.31 2.947-2.113 4.942.239 2.437 2.345 4.43 4.08 5.96a1.036 1.036 0 0 1 .2 1.284l-.028.046a3.48 3.48 0 0 0 .877-1.013.864.864 0 0 0-.167-1.069c-1.443-1.272-3.195-2.93-3.394-4.957a5.3 5.3 0 0 1 1.758-4.111c1.622-1.8 3.923-3.6 6.441-2.5 2.565 1.131 4.296 3.548 6.79 4.796a5.058 5.058 0 0 0 4.714.214 7.144 7.144 0 0 1-3.254-.832z" style="fill:#debb7e"></path><path d="m8.935 15.305 3.449-.695M8.08 9.231l2.903 1.743m1.926-3.348-2.553-2.451m6.186-.152L15.441 1.72m4.455 3.748 1.517-3.176m.648 4.683 2.748-2.155m-.282 4.172 2.55-2.473" style="stroke:#b89558;fill:none;stroke-linecap:round;stroke-linejoin:round;stroke-width:1.25px"></path><path class="e" d="M31.687 8.454a.865.865 0 0 1-.139 1.278 4.928 4.928 0 0 1-5.454.238c-2.5-1.248-4.225-3.665-6.789-4.791-2.519-1.106-4.819.7-6.441 2.5a5.3 5.3 0 0 0-1.758 4.111c.2 2.027 1.95 3.685 3.394 4.958a.862.862 0 0 1 .167 1.068 3.515 3.515 0 0 1-1.355 1.331.876.876 0 0 1-.99-.078c-2-1.673-3.923-3.823-4.486-6.445a8.284 8.284 0 0 1 2.027-6.876 11.761 11.761 0 0 1 6.253-4.2 7.43 7.43 0 0 1 5.863 1.11c.214.153.772.582 1.47 1.12 1.2.925 3.7 2.85 4.2 3.127.728.363 1.14.481 1.746.1a.867.867 0 0 1 1.11.141z"></path><path d="M29.685 8.509 28.4 4.634a.38.38 0 0 1 .542-.453l3.586 1.952a.38.38 0 0 0 .5-.126l2.228-3.421a.38.38 0 0 1 .693.141l.709 4.021a.379.379 0 0 0 .41.312l4.064-.39a.38.38 0 0 1 .322.629l-2.7 3.062a.379.379 0 0 0 .012.515L41.6 13.81a.38.38 0 0 1-.292.644l-4.077-.2a.381.381 0 0 0-.4.331l-.524 4.049a.38.38 0 0 1-.685.173l-2.383-3.315a.381.381 0 0 0-.506-.1L29.248 17.5a.38.38 0 0 1-.562-.428l1.105-3.93a.379.379 0 0 0-.234-.459l-3.831-1.412a.379.379 0 0 1-.016-.706l3.762-1.586a.381.381 0 0 0 .213-.47z" style="fill:#ff8a14;stroke-linecap:round;stroke-linejoin:round;stroke-width:1.25px;stroke:#45413c"></path><path class="c" d="m32.04 9.721-.633-1.906a.187.187 0 0 1 .267-.223l1.764.96a.186.186 0 0 0 .246-.062l1.1-1.683a.187.187 0 0 1 .341.07l.349 1.978a.185.185 0 0 0 .2.153l2-.192a.187.187 0 0 1 .158.31L36.5 10.632a.185.185 0 0 0 .006.253l1.4 1.444a.186.186 0 0 1-.143.316l-2.006-.1a.187.187 0 0 0-.2.163L35.3 14.7a.188.188 0 0 1-.338.086l-1.172-1.631a.187.187 0 0 0-.248-.051l-1.718 1.041a.187.187 0 0 1-.277-.211L32.092 12a.188.188 0 0 0-.115-.226l-1.885-.694a.187.187 0 0 1-.008-.348l1.851-.78a.187.187 0 0 0 .105-.231z"></path></g></svg>