<svg xmlns="http://www.w3.org/2000/svg" viewBox="0 0 30 30"><g transform="matrix(0.6,0,0,0.6,0,0)"><defs><style>.a{fill:#ffe500}.b{fill:#f2c100}.c{fill:none;stroke:#45413c;stroke-linecap:round;stroke-linejoin:round;stroke-width:1.25px}</style></defs><path class="a" d="m18.89 12.693-1.856 2.986-13.843-4.936a2.929 2.929 0 0 1-.941-4.035 2.929 2.929 0 0 1 4.035-.941z"></path><path class="b" d="m17.034 15.678 1.856-2.986-7.023-3.858a1.948 1.948 0 0 0-1.05.373L7.248 12.19z"></path><path class="c" d="m18.89 12.693-1.856 2.986-13.843-4.936a2.929 2.929 0 0 1-.941-4.035h0a2.929 2.929 0 0 1 4.035-.941z"></path><path class="a" d="m11.772 16.891 3.376-.98-.272-12.472a2.93 2.93 0 0 0-3.631-2 2.929 2.929 0 0 0-2 3.63z"></path><path class="b" d="M14.973 7.894a1.933 1.933 0 0 0-2.294.024l-2.015 1.527a1.935 1.935 0 0 0-.394.41l1.5 7.036 3.377-.98z"></path><path class="c" d="m11.772 16.891 3.376-.98-.272-12.472a2.93 2.93 0 0 0-3.631-2h0a2.929 2.929 0 0 0-2 3.63z"></path><path d="m47.447 34.359-10.815 2.262a.938.938 0 0 0-.742 1l.9 10.02a.942.942 0 0 1-1.333.941c-13.9-6.6-27.111-17.676-30.5-30.219a2.819 2.819 0 0 1 1.174-3.073L19.51 6.407a2.811 2.811 0 0 1 4.076 1.087c5.226 10.632 11.127 15.345 24.23 25.193a.94.94 0 0 1-.369 1.672z" style="fill:#ff6242"></path><path d="M47.816 32.687c-.416-.312-.8-.6-1.205-.908l-12.658 1.968a.929.929 0 0 0-.757.976l-.05 8.309a.932.932 0 0 1-1.34.9C20.7 38.352 10.085 28.227 4.878 17.905a2.639 2.639 0 0 0 .082.461c3.39 12.543 16.6 23.623 30.5 30.219a.941.941 0 0 0 1.332-.941l-.9-10.02a.938.938 0 0 1 .742-1l10.815-2.263a.94.94 0 0 0 .367-1.674z" style="fill:#e04122"></path><path class="c" d="m47.447 34.359-10.815 2.262a.938.938 0 0 0-.742 1l.9 10.02a.942.942 0 0 1-1.333.941c-13.9-6.6-27.111-17.676-30.5-30.219a2.819 2.819 0 0 1 1.174-3.073L19.51 6.407a2.811 2.811 0 0 1 4.076 1.087c5.226 10.632 11.127 15.345 24.23 25.193a.94.94 0 0 1-.369 1.672z"></path><path d="m39.448 31.308-7.432.523a.8.8 0 0 0-.623.81l-.155 7.159a.8.8 0 0 1-1.095.776c-10.42-5.5-15.972-12.607-22.03-22.378-.494-.8.2-1.9 1.024-2.453L18.7 9.632a2.193 2.193 0 0 1 3.242.746c3.906 8.23 7.6 12.206 17.85 19.6a.756.756 0 0 1-.344 1.33z" style="stroke:#ffcabf;stroke-linecap:round;stroke-linejoin:round;stroke-width:1.25px;fill:none"></path><circle cx="16.464" cy="16.092" r="3.756" style="fill:#ffffff;stroke-linecap:round;stroke-linejoin:round;stroke-width:1.25px;stroke:#45413c"></circle><path d="M16.92 13.788a5.405 5.405 0 0 1-2.8 2.121 1.973 1.973 0 0 1-1.734-.239 5.386 5.386 0 0 1-1.867-2.17 1.944 1.944 0 0 1 .6-2.365L13.132 9.6a1.944 1.944 0 0 1 2.439.062 5.383 5.383 0 0 1 1.588 2.388 1.97 1.97 0 0 1-.239 1.738z" style="fill:none"></path><path class="a" d="M16.92 13.788a5.405 5.405 0 0 1-2.8 2.121 1.973 1.973 0 0 1-1.734-.239 5.386 5.386 0 0 1-1.867-2.17 1.944 1.944 0 0 1 .6-2.365L13.132 9.6a1.944 1.944 0 0 1 2.439.062 5.383 5.383 0 0 1 1.588 2.388 1.97 1.97 0 0 1-.239 1.738z"></path><path d="M12.065 14.81a1.944 1.944 0 0 1 .6-2.365l2.015-1.527a1.951 1.951 0 0 1 1.745-.3 5.285 5.285 0 0 0-.853-.95 1.943 1.943 0 0 0-2.44-.068l-2.014 1.527a1.942 1.942 0 0 0-.6 2.365 5.38 5.38 0 0 0 1.869 2.174 1.957 1.957 0 0 0 .327.171 5.342 5.342 0 0 1-.649-1.027z" style="fill:#fff48c"></path><path class="c" d="M16.92 13.788a5.405 5.405 0 0 1-2.8 2.121 1.973 1.973 0 0 1-1.734-.239 5.386 5.386 0 0 1-1.867-2.17 1.944 1.944 0 0 1 .6-2.365L13.132 9.6a1.944 1.944 0 0 1 2.439.062 5.383 5.383 0 0 1 1.588 2.388 1.97 1.97 0 0 1-.239 1.738z"></path><path d="M26.575 30.178a1.672 1.672 0 0 1-.537.264 4.493 4.493 0 0 1-4.3-.957 2.125 2.125 0 0 1-.45-2.843 1.8 1.8 0 0 1 2.372-.4 1.783 1.783 0 0 1 1.314-2.2 2.186 2.186 0 0 1 2.443 1.584 5.341 5.341 0 0 1-.318 3.916 1.706 1.706 0 0 1-.524.636z" style="fill:#fff0ed"></path></g></svg>