<svg xmlns="http://www.w3.org/2000/svg" viewBox="0 0 30 30"><g transform="matrix(0.6,0,0,0.6,0,0)"><defs><style>.b,.e{fill:none;stroke-linecap:round;stroke-linejoin:round;stroke-width:1.25px}.b{stroke:#45413c}.c{fill:#6dd627}.d{fill:#9ceb60}.e{stroke:#46b000}</style></defs><path d="M33.6 43.424a3.228 3.228 0 0 0 3.855 2.45 3.219 3.219 0 0 0 2.235-4.467c-2.618-5.741-4.7-10.318-14.838-13.927-.001 0 6.791 7.146 8.748 15.944z" style="fill:#46b000"></path><path class="b" d="M33.6 43.424a3.228 3.228 0 0 0 3.855 2.45h0a3.219 3.219 0 0 0 2.235-4.467c-2.618-5.741-4.7-10.318-14.838-13.927-.001 0 6.791 7.146 8.748 15.944z"></path><path class="c" d="M28.937 41.218c-1.168 4.149-5.847 5.846-10.637 4.287-4.367-1.422-7.3-5.11-6.134-9.258.832-2.954 7.753-7.358 11.67-9.649a2.36 2.36 0 0 1 3.485 1.441c.979 3.823 2.416 10.337 1.616 13.179z"></path><path class="d" d="M19.572 42.143c-3.793-1.235-6.5-4.179-6.384-7.649a5.13 5.13 0 0 0-1.022 1.753C11 40.4 13.933 44.083 18.3 45.505c4.79 1.56 9.469-.138 10.637-4.287a6.388 6.388 0 0 0 .2-1.211c-1.943 2.535-5.716 3.393-9.565 2.136z"></path><path class="e" d="M22.692 35.3a12.731 12.731 0 0 0 3.036-8.926"></path><path class="b" d="M28.937 41.218c-1.168 4.149-5.847 5.846-10.637 4.287-4.367-1.422-7.3-5.11-6.134-9.258.832-2.954 7.753-7.358 11.67-9.649a2.36 2.36 0 0 1 3.485 1.441c.979 3.823 2.416 10.337 1.616 13.179z"></path><path class="c" d="M34.945 12.646c.609-4.541-3.241-8.17-8.572-8.668-4.862-.453-9.281 1.908-9.89 6.449-.434 3.234 4.464 10.449 7.321 14.336a2.508 2.508 0 0 0 4.008.063c2.57-3.316 6.716-9.069 7.133-12.18z"></path><path class="d" d="M26.2 7.8c-4.222-.393-8.106 1.338-9.455 4.774a5.453 5.453 0 0 1-.258-2.142c.609-4.541 5.028-6.9 9.89-6.449 5.331.5 9.181 4.127 8.572 8.669a6.786 6.786 0 0 1-.316 1.265C33.8 10.62 30.481 8.2 26.2 7.8z"></path><path class="e" d="M25.873 15.4a13.516 13.516 0 0 1-.786 10.279"></path><path class="b" d="M34.945 12.646c.609-4.541-3.241-8.17-8.572-8.668-4.862-.453-9.281 1.908-9.89 6.449-.434 3.234 4.464 10.449 7.321 14.336a2.508 2.508 0 0 0 4.008.063c2.57-3.316 6.716-9.069 7.133-12.18z"></path><path class="c" d="M40.672 33.4c4.344-.118 7.159-4.272 6.816-9.339-.311-4.621-3.191-8.4-7.535-8.283-3.094.084-9.107 5.763-12.313 9.026a2.379 2.379 0 0 0 .547 3.762c3.495 1.902 9.513 4.912 12.485 4.834z"></path><path class="d" d="M43.888 24.471c-.271-4.013-2.48-7.387-5.9-8.13a5.178 5.178 0 0 1 1.966-.566c4.344-.117 7.224 3.662 7.536 8.283.342 5.067-2.473 9.221-6.817 9.339a6.4 6.4 0 0 1-1.233-.1c2.96-1.277 4.723-4.754 4.448-8.826z"></path><path class="e" d="M36.717 25.32a12.816 12.816 0 0 1-9.743.822"></path><path class="b" d="M40.672 33.4c4.344-.118 7.159-4.272 6.816-9.339-.311-4.621-3.191-8.4-7.535-8.283-3.094.084-9.107 5.763-12.313 9.026a2.379 2.379 0 0 0 .547 3.762c3.495 1.902 9.513 4.912 12.485 4.834z"></path><path class="c" d="M8.859 31.308C4.373 30.8 1.827 26.25 2.631 21.035c.732-4.755 4.049-8.413 8.535-7.906 3.2.361 8.916 6.773 11.946 10.436a2.471 2.471 0 0 1-.9 3.846c-3.786 1.662-10.28 4.244-13.353 3.897z"></path><path class="d" d="M6.321 21.782c.636-4.13 3.223-7.427 6.83-7.892a5.38 5.38 0 0 0-1.985-.761c-4.486-.507-7.8 3.151-8.536 7.906-.8 5.215 1.743 9.766 6.229 10.273a6.713 6.713 0 0 0 1.286 0c-2.945-1.578-4.47-5.335-3.824-9.526z"></path><path class="e" d="M13.923 23.852a13.337 13.337 0 0 0 9.741 1.631"></path><path class="b" d="M8.859 31.308C4.373 30.8 1.827 26.25 2.631 21.035c.732-4.755 4.049-8.413 8.535-7.906 3.2.361 8.916 6.773 11.946 10.436a2.471 2.471 0 0 1-.9 3.846c-3.786 1.662-10.28 4.244-13.353 3.897z"></path></g></svg>